<?xml version="1.0" encoding="UTF-8" standalone="no"?>
<!-- Created with Inkscape (http://www.inkscape.org/) -->

<svg
   xmlns:dc="http://purl.org/dc/elements/1.1/"
   xmlns:cc="http://creativecommons.org/ns#"
   xmlns:rdf="http://www.w3.org/1999/02/22-rdf-syntax-ns#"
   xmlns:svg="http://www.w3.org/2000/svg"
   xmlns="http://www.w3.org/2000/svg"
   xmlns:xlink="http://www.w3.org/1999/xlink"
   xmlns:sodipodi="http://sodipodi.sourceforge.net/DTD/sodipodi-0.dtd"
   xmlns:inkscape="http://www.inkscape.org/namespaces/inkscape"
   height="7.5469999"
   id="svg2"
   inkscape:export-filename="./fredyrouge-typo_inverse_410x75.png"
   inkscape:export-xdpi="900"
   inkscape:export-ydpi="900"
   inkscape:version="0.48.3.1 r9886"
   sodipodi:docname="fredyrouge-typo_inverse.svg"
   sodipodi:version="0.32"
   width="41"
   inkscape:output_extension="org.inkscape.output.svg.inkscape"
   version="1.0">
  <title
     id="title3902">logotype fredyrouge</title>
  <metadata
     id="metadata3">
    <rdf:RDF>
      <cc:Work
         rdf:about="">
        <dc:title>logotype fredyrouge</dc:title>
        <dc:description>typo: it wasn't me</dc:description>
        <dc:subject>
          <rdf:Bag />
        </dc:subject>
        <dc:publisher>
          <cc:Agent
             rdf:about="http://www.openclipart.org">
            <dc:title>fredyrouge</dc:title>
          </cc:Agent>
        </dc:publisher>
        <dc:creator>
          <cc:Agent>
            <dc:title>fredyrouge</dc:title>
          </cc:Agent>
        </dc:creator>
        <dc:rights>
          <cc:Agent>
            <dc:title>fredyrouge</dc:title>
          </cc:Agent>
        </dc:rights>
        <dc:date>2011-09-27</dc:date>
        <dc:format>image/svg+xml</dc:format>
        <dc:type
           rdf:resource="http://purl.org/dc/dcmitype/StillImage" />
        <cc:license
           rdf:resource="" />
        <dc:language />
      </cc:Work>
    </rdf:RDF>
  </metadata>
  <defs
     id="defs3">
    <inkscape:perspective
       sodipodi:type="inkscape:persp3d"
       inkscape:vp_x="0 : 478.10577 : 1"
       inkscape:vp_y="0 : 1000 : 0"
       inkscape:vp_z="682.51459 : 478.10577 : 1"
       inkscape:persp3d-origin="341.25729 : 318.73718 : 1"
       id="perspective47" />
    <linearGradient
       id="linearGradient2128">
      <stop
         id="stop2130"
         offset="0.00000000"
         style="stop-color:#ffea70;stop-opacity:1.0000000;" />
      <stop
         id="stop2134"
         offset="0.50000000"
         style="stop-color:#ffec82;stop-opacity:1.0000000;" />
      <stop
         id="stop2132"
         offset="1.0000000"
         style="stop-color:#fff5b9;stop-opacity:0.49803922;" />
    </linearGradient>
    <linearGradient
       id="linearGradient2105">
      <stop
         id="stop2107"
         offset="0.00000000"
         style="stop-color:#a7a7ff;stop-opacity:1.0000000;" />
      <stop
         id="stop2109"
         offset="1.0000000"
         style="stop-color:#7d7dff;stop-opacity:0.00000000;" />
    </linearGradient>
    <linearGradient
       id="linearGradient2083">
      <stop
         id="stop2085"
         offset="0.00000000"
         style="stop-color:#c18300;stop-opacity:1.0000000;" />
      <stop
         id="stop2087"
         offset="1.0000000"
         style="stop-color:#8f6e27;stop-opacity:1.0000000;" />
    </linearGradient>
    <linearGradient
       id="linearGradient2073">
      <stop
         id="stop2075"
         offset="0.00000000"
         style="stop-color:#a77200;stop-opacity:1.0000000;" />
      <stop
         id="stop2077"
         offset="1.0000000"
         style="stop-color:#ffca58;stop-opacity:1.0000000;" />
    </linearGradient>
    <linearGradient
       gradientTransform="scale(2.260776,0.442326)"
       gradientUnits="userSpaceOnUse"
       id="linearGradient2079"
       inkscape:collect="always"
       x1="41.855877"
       x2="226.91322"
       xlink:href="#linearGradient2073"
       y1="1450.0052"
       y2="1450.006" />
    <radialGradient
       cx="135.13055"
       cy="1382.1534"
       fx="135.13055"
       fy="1382.1534"
       gradientTransform="scale(2.260777,0.442326)"
       gradientUnits="userSpaceOnUse"
       id="radialGradient2089"
       inkscape:collect="always"
       r="91.561455"
       xlink:href="#linearGradient2083" />
    <linearGradient
       gradientTransform="scale(2.260776,0.442326)"
       gradientUnits="userSpaceOnUse"
       id="linearGradient2101"
       inkscape:collect="always"
       x1="41.855877"
       x2="226.91322"
       xlink:href="#linearGradient2073"
       y1="1450.0052"
       y2="1450.006" />
    <radialGradient
       cx="135.13055"
       cy="1382.1534"
       fx="135.13055"
       fy="1382.1534"
       gradientTransform="scale(2.260777,0.442326)"
       gradientUnits="userSpaceOnUse"
       id="radialGradient2103"
       inkscape:collect="always"
       r="91.561455"
       xlink:href="#linearGradient2083" />
    <radialGradient
       cx="211.15327"
       cy="321.41394"
       fx="66.446259"
       fy="178.96794"
       gradientTransform="scale(0.85829,1.165108)"
       gradientUnits="userSpaceOnUse"
       id="radialGradient2111"
       inkscape:collect="always"
       r="217.06084"
       spreadMethod="pad"
       xlink:href="#linearGradient2105" />
    <radialGradient
       cx="211.15327"
       cy="321.41394"
       fx="66.446259"
       fy="178.96794"
       gradientTransform="matrix(0.85829,0,0,1.165108,432.1969,-14.35163)"
       gradientUnits="userSpaceOnUse"
       id="radialGradient2117"
       inkscape:collect="always"
       r="217.06084"
       spreadMethod="pad"
       xlink:href="#linearGradient2105" />
    <radialGradient
       cx="293.37479"
       cy="306.63708"
       fx="295.16464"
       fy="306.63721"
       gradientTransform="scale(1.065568,0.938466)"
       gradientUnits="userSpaceOnUse"
       id="radialGradient2126"
       inkscape:collect="always"
       r="76.310585"
       xlink:href="#linearGradient2128" />
    <radialGradient
       cx="293.37479"
       cy="306.63708"
       fx="295.16464"
       fy="306.63721"
       gradientTransform="matrix(-2.098848,0,0,-0.816003,920.3711,855.3891)"
       gradientUnits="userSpaceOnUse"
       id="radialGradient2138"
       inkscape:collect="always"
       r="76.310585"
       xlink:href="#linearGradient2128" />
    <radialGradient
       cx="211.15327"
       cy="321.41394"
       fx="66.446259"
       fy="178.96794"
       gradientTransform="scale(0.85829,1.165108)"
       gradientUnits="userSpaceOnUse"
       id="radialGradient2155"
       inkscape:collect="always"
       r="217.06084"
       spreadMethod="pad"
       xlink:href="#linearGradient2105" />
    <radialGradient
       cx="293.37479"
       cy="306.63708"
       fx="295.16464"
       fy="306.63721"
       gradientTransform="scale(1.065568,0.938466)"
       gradientUnits="userSpaceOnUse"
       id="radialGradient2161"
       inkscape:collect="always"
       r="76.310585"
       xlink:href="#linearGradient2128" />
    <radialGradient
       cx="293.37479"
       cy="306.63708"
       fx="295.16464"
       fy="306.63721"
       gradientTransform="matrix(-2.098848,0,0,-0.816003,920.3711,855.3891)"
       gradientUnits="userSpaceOnUse"
       id="radialGradient2163"
       inkscape:collect="always"
       r="76.310585"
       xlink:href="#linearGradient2128" />
    <linearGradient
       y2="18.721201"
       y1="18.721201"
       x2="80.2817"
       x1="2.1284001"
       id="XMLID_64_"
       gradientUnits="userSpaceOnUse">
      <stop
         style="stop-color:#CC9158"
         offset="0"
         id="stop142" />
      <stop
         style="stop-color:#CC853F"
         offset="0.3477"
         id="stop144" />
      <stop
         style="stop-color:#CC6906"
         offset="1"
         id="stop146" />
    </linearGradient>
    <linearGradient
       y2="434.397"
       y1="434.397"
       x2="-261.3233"
       x1="-263.21921"
       id="XMLID_63_"
       gradientUnits="userSpaceOnUse"
       gradientTransform="matrix(0,56.1332,56.1332,0,-24342.73,14680.11)">
      <stop
         style="stop-color:#FFFA5F"
         offset="0"
         id="stop135" />
      <stop
         style="stop-color:#9F3300"
         offset="1"
         id="stop137" />
    </linearGradient>
    <linearGradient
       y2="464.53961"
       y1="464.53961"
       x2="-267.78922"
       x1="-269.66501"
       id="XMLID_62_"
       gradientUnits="userSpaceOnUse"
       gradientTransform="matrix(209.1383,21.2243,21.2243,-209.1383,46445.63,102931.4)">
      <stop
         style="stop-color:#FFFFFF"
         offset="0"
         id="stop126" />
      <stop
         style="stop-color:#848484"
         offset="1"
         id="stop128" />
    </linearGradient>
    <linearGradient
       y2="379.25049"
       y1="379.25049"
       x2="-262.05289"
       x1="-263.9595"
       id="XMLID_53_"
       gradientUnits="userSpaceOnUse"
       gradientTransform="matrix(0.2024,20.1083,20.1083,-0.2024,-7531.732,5452.238)">
      <stop
         style="stop-color:#FFFA5F"
         offset="0"
         id="stop15" />
      <stop
         style="stop-color:#9F3300"
         offset="1"
         id="stop17" />
    </linearGradient>
    <linearGradient
       y2="120.4009"
       y1="120.4009"
       x2="80.483902"
       x1="2.3301001"
       id="XMLID_52_"
       gradientUnits="userSpaceOnUse">
      <stop
         style="stop-color:#CC9158"
         offset="0"
         id="stop6" />
      <stop
         style="stop-color:#CC853F"
         offset="0.3477"
         id="stop8" />
      <stop
         style="stop-color:#CC6906"
         offset="1"
         id="stop10" />
    </linearGradient>
    <inkscape:perspective
       id="perspective3014"
       inkscape:persp3d-origin="41.300499 : 46.217331 : 1"
       inkscape:vp_z="82.600998 : 69.325996 : 1"
       inkscape:vp_y="0 : 1000 : 0"
       inkscape:vp_x="0 : 69.325996 : 1"
       sodipodi:type="inkscape:persp3d" />
    <inkscape:perspective
       id="perspective3014-7"
       inkscape:persp3d-origin="0.5 : 0.33333333 : 1"
       inkscape:vp_z="1 : 0.5 : 1"
       inkscape:vp_y="0 : 1000 : 0"
       inkscape:vp_x="0 : 0.5 : 1"
       sodipodi:type="inkscape:persp3d" />
    <inkscape:perspective
       id="perspective2952"
       inkscape:persp3d-origin="0.5 : 0.33333333 : 1"
       inkscape:vp_z="1 : 0.5 : 1"
       inkscape:vp_y="0 : 1000 : 0"
       inkscape:vp_x="0 : 0.5 : 1"
       sodipodi:type="inkscape:persp3d" />
    <inkscape:perspective
       id="perspective2889"
       inkscape:persp3d-origin="0.5 : 0.33333333 : 1"
       inkscape:vp_z="1 : 0.5 : 1"
       inkscape:vp_y="0 : 1000 : 0"
       inkscape:vp_x="0 : 0.5 : 1"
       sodipodi:type="inkscape:persp3d" />
    <inkscape:perspective
       id="perspective2927"
       inkscape:persp3d-origin="67.5 : 45.670975 : 1"
       inkscape:vp_z="135 : 68.506462 : 1"
       inkscape:vp_y="0 : 1000 : 0"
       inkscape:vp_x="0 : 68.506462 : 1"
       sodipodi:type="inkscape:persp3d" />
    <inkscape:perspective
       sodipodi:type="inkscape:persp3d"
       inkscape:vp_x="0 : 68.506462 : 1"
       inkscape:vp_y="0 : 1000 : 0"
       inkscape:vp_z="135 : 68.506462 : 1"
       inkscape:persp3d-origin="67.5 : 45.670975 : 1"
       id="perspective2927-1" />
    <inkscape:perspective
       sodipodi:type="inkscape:persp3d"
       inkscape:vp_x="0 : 0.5 : 1"
       inkscape:vp_y="0 : 1000 : 0"
       inkscape:vp_z="1 : 0.5 : 1"
       inkscape:persp3d-origin="0.5 : 0.33333333 : 1"
       id="perspective2889-8" />
    <inkscape:perspective
       sodipodi:type="inkscape:persp3d"
       inkscape:vp_x="0 : 0.5 : 1"
       inkscape:vp_y="0 : 1000 : 0"
       inkscape:vp_z="1 : 0.5 : 1"
       inkscape:persp3d-origin="0.5 : 0.33333333 : 1"
       id="perspective2952-4" />
    <inkscape:perspective
       sodipodi:type="inkscape:persp3d"
       inkscape:vp_x="0 : 0.5 : 1"
       inkscape:vp_y="0 : 1000 : 0"
       inkscape:vp_z="1 : 0.5 : 1"
       inkscape:persp3d-origin="0.5 : 0.33333333 : 1"
       id="perspective3014-7-8" />
    <inkscape:perspective
       sodipodi:type="inkscape:persp3d"
       inkscape:vp_x="0 : 69.325996 : 1"
       inkscape:vp_y="0 : 1000 : 0"
       inkscape:vp_z="82.600998 : 69.325996 : 1"
       inkscape:persp3d-origin="41.300499 : 46.217331 : 1"
       id="perspective3014-9" />
    <linearGradient
       gradientUnits="userSpaceOnUse"
       id="XMLID_52_-6"
       x1="2.3301001"
       x2="80.483902"
       y1="120.4009"
       y2="120.4009">
      <stop
         id="stop6-1"
         offset="0"
         style="stop-color:#CC9158" />
      <stop
         id="stop8-1"
         offset="0.3477"
         style="stop-color:#CC853F" />
      <stop
         id="stop10-5"
         offset="1"
         style="stop-color:#CC6906" />
    </linearGradient>
    <linearGradient
       gradientTransform="matrix(0.2024,20.1083,20.1083,-0.2024,-7531.732,5452.238)"
       gradientUnits="userSpaceOnUse"
       id="XMLID_53_-3"
       x1="-263.9595"
       x2="-262.05289"
       y1="379.25049"
       y2="379.25049">
      <stop
         id="stop15-8"
         offset="0"
         style="stop-color:#FFFA5F" />
      <stop
         id="stop17-5"
         offset="1"
         style="stop-color:#9F3300" />
    </linearGradient>
    <linearGradient
       gradientTransform="matrix(209.1383,21.2243,21.2243,-209.1383,46445.63,102931.4)"
       gradientUnits="userSpaceOnUse"
       id="XMLID_62_-0"
       x1="-269.66501"
       x2="-267.78922"
       y1="464.53961"
       y2="464.53961">
      <stop
         id="stop126-9"
         offset="0"
         style="stop-color:#FFFFFF" />
      <stop
         id="stop128-6"
         offset="1"
         style="stop-color:#848484" />
    </linearGradient>
    <linearGradient
       gradientTransform="matrix(0,56.1332,56.1332,0,-24342.73,14680.11)"
       gradientUnits="userSpaceOnUse"
       id="XMLID_63_-8"
       x1="-263.21921"
       x2="-261.3233"
       y1="434.397"
       y2="434.397">
      <stop
         id="stop135-8"
         offset="0"
         style="stop-color:#FFFA5F" />
      <stop
         id="stop137-5"
         offset="1"
         style="stop-color:#9F3300" />
    </linearGradient>
    <linearGradient
       gradientUnits="userSpaceOnUse"
       id="XMLID_64_-9"
       x1="2.1284001"
       x2="80.2817"
       y1="18.721201"
       y2="18.721201">
      <stop
         id="stop142-3"
         offset="0"
         style="stop-color:#CC9158" />
      <stop
         id="stop144-9"
         offset="0.3477"
         style="stop-color:#CC853F" />
      <stop
         id="stop146-0"
         offset="1"
         style="stop-color:#CC6906" />
    </linearGradient>
    <radialGradient
       xlink:href="#linearGradient2128-9"
       r="76.310585"
       inkscape:collect="always"
       id="radialGradient2163-2"
       gradientUnits="userSpaceOnUse"
       gradientTransform="matrix(-2.098848,0,0,-0.816003,920.3711,855.3891)"
       fy="306.63721"
       fx="295.16464"
       cy="306.63708"
       cx="293.37479" />
    <radialGradient
       xlink:href="#linearGradient2128-9"
       r="76.310585"
       inkscape:collect="always"
       id="radialGradient2161-1"
       gradientUnits="userSpaceOnUse"
       gradientTransform="scale(1.065568,0.938466)"
       fy="306.63721"
       fx="295.16464"
       cy="306.63708"
       cx="293.37479" />
    <radialGradient
       xlink:href="#linearGradient2105-7"
       spreadMethod="pad"
       r="217.06084"
       inkscape:collect="always"
       id="radialGradient2155-8"
       gradientUnits="userSpaceOnUse"
       gradientTransform="scale(0.85829,1.165108)"
       fy="178.96794"
       fx="66.446259"
       cy="321.41394"
       cx="211.15327" />
    <radialGradient
       xlink:href="#linearGradient2128-9"
       r="76.310585"
       inkscape:collect="always"
       id="radialGradient2138-4"
       gradientUnits="userSpaceOnUse"
       gradientTransform="matrix(-2.098848,0,0,-0.816003,920.3711,855.3891)"
       fy="306.63721"
       fx="295.16464"
       cy="306.63708"
       cx="293.37479" />
    <radialGradient
       xlink:href="#linearGradient2128-9"
       r="76.310585"
       inkscape:collect="always"
       id="radialGradient2126-9"
       gradientUnits="userSpaceOnUse"
       gradientTransform="scale(1.065568,0.938466)"
       fy="306.63721"
       fx="295.16464"
       cy="306.63708"
       cx="293.37479" />
    <radialGradient
       xlink:href="#linearGradient2105-7"
       spreadMethod="pad"
       r="217.06084"
       inkscape:collect="always"
       id="radialGradient2117-3"
       gradientUnits="userSpaceOnUse"
       gradientTransform="matrix(0.85829,0,0,1.165108,432.1969,-14.35163)"
       fy="178.96794"
       fx="66.446259"
       cy="321.41394"
       cx="211.15327" />
    <radialGradient
       xlink:href="#linearGradient2105-7"
       spreadMethod="pad"
       r="217.06084"
       inkscape:collect="always"
       id="radialGradient2111-6"
       gradientUnits="userSpaceOnUse"
       gradientTransform="scale(0.85829,1.165108)"
       fy="178.96794"
       fx="66.446259"
       cy="321.41394"
       cx="211.15327" />
    <radialGradient
       xlink:href="#linearGradient2083-1"
       r="91.561455"
       inkscape:collect="always"
       id="radialGradient2103-5"
       gradientUnits="userSpaceOnUse"
       gradientTransform="scale(2.260777,0.442326)"
       fy="1382.1534"
       fx="135.13055"
       cy="1382.1534"
       cx="135.13055" />
    <linearGradient
       y2="1450.006"
       y1="1450.0052"
       xlink:href="#linearGradient2073-7"
       x2="226.91322"
       x1="41.855877"
       inkscape:collect="always"
       id="linearGradient2101-6"
       gradientUnits="userSpaceOnUse"
       gradientTransform="scale(2.260776,0.442326)" />
    <radialGradient
       xlink:href="#linearGradient2083-1"
       r="91.561455"
       inkscape:collect="always"
       id="radialGradient2089-3"
       gradientUnits="userSpaceOnUse"
       gradientTransform="scale(2.260777,0.442326)"
       fy="1382.1534"
       fx="135.13055"
       cy="1382.1534"
       cx="135.13055" />
    <linearGradient
       y2="1450.006"
       y1="1450.0052"
       xlink:href="#linearGradient2073-7"
       x2="226.91322"
       x1="41.855877"
       inkscape:collect="always"
       id="linearGradient2079-7"
       gradientUnits="userSpaceOnUse"
       gradientTransform="scale(2.260776,0.442326)" />
    <linearGradient
       id="linearGradient2073-7">
      <stop
         style="stop-color:#a77200;stop-opacity:1.0000000;"
         offset="0.00000000"
         id="stop2075-7" />
      <stop
         style="stop-color:#ffca58;stop-opacity:1.0000000;"
         offset="1.0000000"
         id="stop2077-6" />
    </linearGradient>
    <linearGradient
       id="linearGradient2083-1">
      <stop
         style="stop-color:#c18300;stop-opacity:1.0000000;"
         offset="0.00000000"
         id="stop2085-5" />
      <stop
         style="stop-color:#8f6e27;stop-opacity:1.0000000;"
         offset="1.0000000"
         id="stop2087-9" />
    </linearGradient>
    <linearGradient
       id="linearGradient2105-7">
      <stop
         style="stop-color:#a7a7ff;stop-opacity:1.0000000;"
         offset="0.00000000"
         id="stop2107-7" />
      <stop
         style="stop-color:#7d7dff;stop-opacity:0.00000000;"
         offset="1.0000000"
         id="stop2109-1" />
    </linearGradient>
    <linearGradient
       id="linearGradient2128-9">
      <stop
         style="stop-color:#ffea70;stop-opacity:1.0000000;"
         offset="0.00000000"
         id="stop2130-0" />
      <stop
         style="stop-color:#ffec82;stop-opacity:1.0000000;"
         offset="0.50000000"
         id="stop2134-9" />
      <stop
         style="stop-color:#fff5b9;stop-opacity:0.49803922;"
         offset="1.0000000"
         id="stop2132-1" />
    </linearGradient>
    <inkscape:perspective
       id="perspective47-4"
       inkscape:persp3d-origin="341.25729 : 318.73718 : 1"
       inkscape:vp_z="682.51459 : 478.10577 : 1"
       inkscape:vp_y="0 : 1000 : 0"
       inkscape:vp_x="0 : 478.10577 : 1"
       sodipodi:type="inkscape:persp3d" />
  </defs>
  <sodipodi:namedview
     bordercolor="#666666"
     borderopacity="1.0"
     id="base"
     inkscape:current-layer="layer1"
     inkscape:cx="20.647093"
     inkscape:cy="2.4176186"
     inkscape:document-units="px"
     inkscape:pageopacity="0"
     inkscape:pageshadow="2"
     inkscape:window-height="577"
     inkscape:window-width="1020"
     inkscape:window-x="0"
     inkscape:window-y="19"
     inkscape:zoom="18.402984"
     pagecolor="#000000"
     showgrid="false"
     inkscape:window-maximized="1"
     inkscape:snap-object-midpoints="true"
     inkscape:snap-center="true"
     inkscape:snap-grids="true"
     inkscape:snap-to-guides="true"
     inkscape:snap-page="true"
     showguides="true"
     inkscape:guide-bbox="true"
     fit-margin-top="0"
     fit-margin-left="0"
     fit-margin-right="0"
     fit-margin-bottom="0" />
  <g
     id="layer1"
     inkscape:groupmode="layer"
     inkscape:label="Layer 1"
     transform="translate(-567.95355,-561.17462)">
    <g
       inkscape:transform-center-x="3.6638094"
       inkscape:transform-center-y="2.6646416"
       style="font-size:14.32937145px;font-style:normal;font-variant:normal;font-weight:normal;font-stretch:normal;text-align:start;line-height:125%;letter-spacing:0px;word-spacing:0px;writing-mode:lr-tb;text-anchor:start;fill:#ffffff;fill-opacity:1;stroke:none;font-family:'It wasn\'t me';-inkscape-font-specification:'It wasn\'t me'"
       id="text3311" />
    <rect
       style="fill:none"
       id="rect3323"
       width="41"
       height="7.5469999"
       x="567.95355"
       y="561.17462" />
    <path
       style="font-size:10.56600189000000078px;font-style:normal;font-variant:normal;font-weight:normal;font-stretch:normal;text-align:start;line-height:125%;letter-spacing:0px;word-spacing:0px;writing-mode:lr-tb;text-anchor:start;fill:#ffffff;fill-opacity:1;stroke:none;font-family:'It wasn\'t me';-inkscape-font-specification:'It wasn\'t me'"
       id="path3088"
       d="m 569.40329,562.6239 c 0,-0.15478 0.0378,-0.24592 0.1135,-0.27344 0.0791,-0.0309 0.14618,-0.0464 0.20121,-0.0464 l 1.26916,0 0,-0.62942 -1.89858,0 c -0.16509,0 -0.31299,0.0413 -0.44369,0.12382 -0.12726,0.0791 -0.19089,0.24764 -0.19089,0.5056 l 0,4.75676 0.94929,0 0,-4.43689 m 0.31471,1.51164 0,0.63457 0.95445,0 0,-0.63457 -0.95445,0"
       inkscape:connector-curvature="0" />
    <path
       style="font-size:10.56600189000000078px;font-style:normal;font-variant:normal;font-weight:normal;font-stretch:normal;text-align:start;line-height:125%;letter-spacing:0px;word-spacing:0px;writing-mode:lr-tb;text-anchor:start;fill:#ffffff;fill-opacity:1;stroke:none;font-family:'It wasn\'t me';-inkscape-font-specification:'It wasn\'t me'"
       id="path3090"
       d="m 571.65269,567.06079 0.94929,0 0,-4.33371 -0.94929,0 0,4.33371 m 1.264,-3.69913 1.26916,0 c 0.0275,0 0.0585,0.002 0.0929,0.005 0.0378,0.003 0.0722,0.0172 0.10318,0.0413 0.031,0.0206 0.0585,0.0516 0.0826,0.0929 0.0275,0.0413 0.0413,0.10146 0.0413,0.18057 l 0,0.45401 0.94929,0 0,-0.77388 c 0,-0.13414 -0.0172,-0.24076 -0.0516,-0.31987 -0.0344,-0.0825 -0.0825,-0.14617 -0.14446,-0.19089 -0.0585,-0.0447 -0.12726,-0.0757 -0.20637,-0.0929 -0.0757,-0.0206 -0.15306,-0.0309 -0.23216,-0.0309 l -1.90374,0 0,0.63458"
       inkscape:connector-curvature="0" />
    <path
       style="font-size:10.56600189000000078px;font-style:normal;font-variant:normal;font-weight:normal;font-stretch:normal;text-align:start;line-height:125%;letter-spacing:0px;word-spacing:0px;writing-mode:lr-tb;text-anchor:start;fill:#ffffff;fill-opacity:1;stroke:none;font-family:'It wasn\'t me';-inkscape-font-specification:'It wasn\'t me'"
       id="path3092"
       d="m 578.63307,563.68153 0,1.02152 c -10e-6,0.0791 -0.0138,0.1393 -0.0413,0.18057 -0.0241,0.0413 -0.0516,0.074 -0.0825,0.098 -0.0309,0.0206 -0.0653,0.0327 -0.10318,0.0361 -0.0344,0.003 -0.0654,0.005 -0.0929,0.005 l -1.58387,0 0,-2.29583 -0.94929,0 0,3.69913 c 0,0.13414 0.0172,0.24248 0.0516,0.32503 0.0344,0.0791 0.0808,0.14274 0.1393,0.19089 0.0619,0.0447 0.1307,0.0757 0.20637,0.0929 0.0791,0.0172 0.15821,0.0258 0.23732,0.0258 l 3.16773,0 0,-0.63458 -2.53831,0 c -0.0275,0 -0.0585,-0.002 -0.0929,-0.005 -0.0344,-0.003 -0.0688,-0.0155 -0.10318,-0.0361 -0.031,-0.0206 -0.0585,-0.0516 -0.0825,-0.0929 -0.0241,-0.0447 -0.0361,-0.1049 -0.0361,-0.18057 l 0,-0.45401 2.21845,0 c 0.0791,1e-5 0.15649,-0.009 0.23216,-0.0258 0.0791,-0.0206 0.14789,-0.0533 0.20637,-0.098 0.0619,-0.0447 0.11005,-0.10662 0.14445,-0.18573 0.0344,-0.0825 0.0516,-0.19088 0.0516,-0.32503 l 0,-1.66125 c 0,-0.13414 -0.0172,-0.24076 -0.0516,-0.31987 -0.0344,-0.0825 -0.0825,-0.14617 -0.14445,-0.19089 -0.0585,-0.0447 -0.12727,-0.0757 -0.20637,-0.0929 -0.0757,-0.0206 -0.15306,-0.0309 -0.23216,-0.0309 l -1.90374,0 0,0.63458 1.26916,0 c 0.0275,0 0.0585,0.002 0.0929,0.005 0.0378,0.003 0.0722,0.0172 0.10318,0.0413 0.031,0.0206 0.0585,0.0516 0.0825,0.0929 0.0275,0.0413 0.0413,0.10146 0.0413,0.18057"
       inkscape:connector-curvature="0" />
    <path
       style="font-size:10.56600189000000078px;font-style:normal;font-variant:normal;font-weight:normal;font-stretch:normal;text-align:start;line-height:125%;letter-spacing:0px;word-spacing:0px;writing-mode:lr-tb;text-anchor:start;fill:#ffffff;fill-opacity:1;stroke:none;font-family:'It wasn\'t me';-inkscape-font-specification:'It wasn\'t me'"
       id="path3094"
       d="m 583.7097,561.67461 -0.94929,0 0,1.05247 -1.58903,0 0,0.63458 1.58903,0 0,3.69913 0.94929,0 0,-5.38618 m -1.26916,4.7516 -1.26916,0 c -0.0275,0 -0.0585,-0.002 -0.0929,-0.005 -0.0344,-0.003 -0.0688,-0.0155 -0.10319,-0.0361 -0.0309,-0.0206 -0.0585,-0.0516 -0.0825,-0.0929 -0.0241,-0.0447 -0.0361,-0.1049 -0.0361,-0.18057 l 0,-3.38442 -0.94929,0 0,3.69913 c 0,0.13414 0.0172,0.24248 0.0516,0.32503 0.0344,0.0791 0.0808,0.14274 0.13929,0.19089 0.0619,0.0447 0.1307,0.0757 0.20637,0.0929 0.0791,0.0172 0.15821,0.0258 0.23732,0.0258 l 1.89858,0 0,-0.63458"
       inkscape:connector-curvature="0" />
    <path
       style="font-size:10.56600189000000078px;font-style:normal;font-variant:normal;font-weight:normal;font-stretch:normal;text-align:start;line-height:125%;letter-spacing:0px;word-spacing:0px;writing-mode:lr-tb;text-anchor:start;fill:#ffffff;fill-opacity:1;stroke:none;font-family:'It wasn\'t me';-inkscape-font-specification:'It wasn\'t me'"
       id="path3096"
       d="m 586.8568,567.27232 c 0,0.0757 -0.0138,0.13414 -0.0413,0.17541 -0.0241,0.0447 -0.0516,0.0774 -0.0825,0.098 -0.031,0.0206 -0.0653,0.0327 -0.10318,0.0361 -0.0344,0.003 -0.0654,0.005 -0.0929,0.005 l -1.22273,0 0,0.63458 1.85731,0 c 0.0791,0 0.15649,-0.009 0.23216,-0.0258 0.0791,-0.0172 0.1479,-0.0499 0.20637,-0.098 0.0585,-0.0447 0.1049,-0.10835 0.1393,-0.19089 0.0378,-0.0791 0.0567,-0.18573 0.0568,-0.31987 l 0,-4.85995 -0.94929,0 0,4.54524 m -1.86246,-1.16082 0,-3.38442 -0.94929,0 0,3.69913 c 0,0.13414 0.0172,0.24248 0.0516,0.32503 0.0344,0.0791 0.0808,0.14274 0.1393,0.19089 0.0619,0.0447 0.13069,0.0757 0.20636,0.0929 0.0791,0.0172 0.15822,0.0258 0.23733,0.0258 l 1.8573,0 0,-0.63458 -1.22273,0 c -0.031,0 -0.0636,-0.002 -0.098,-0.005 -0.0344,-0.003 -0.0688,-0.0155 -0.10318,-0.0361 -0.031,-0.0206 -0.0585,-0.0516 -0.0826,-0.0929 -0.0241,-0.0447 -0.0361,-0.1049 -0.0361,-0.18057"
       inkscape:connector-curvature="0" />
    <path
       id="path3098"
       style="font-size:10.56600189px;font-style:normal;font-variant:normal;font-weight:normal;font-stretch:normal;text-align:start;line-height:125%;letter-spacing:0px;word-spacing:0px;writing-mode:lr-tb;text-anchor:start;fill:#ff0000;fill-opacity:1;stroke:none;font-family:'It wasn\'t me';-inkscape-font-specification:'It wasn\'t me'"
       d="m 588.14144,567.06079 0.94928,0 0,-4.33371 -0.94928,0 0,4.33371 m 1.26399,-3.69913 1.26916,0 c 0.0275,0 0.0585,0.002 0.0929,0.005 0.0378,0.003 0.0722,0.0172 0.10318,0.0413 0.031,0.0206 0.0585,0.0516 0.0825,0.0929 0.0275,0.0413 0.0413,0.10146 0.0413,0.18057 l 0,0.45401 0.94929,0 0,-0.77388 c 0,-0.13414 -0.0172,-0.24076 -0.0516,-0.31987 -0.0344,-0.0825 -0.0825,-0.14617 -0.14446,-0.19089 -0.0585,-0.0447 -0.12726,-0.0757 -0.20636,-0.0929 -0.0757,-0.0206 -0.15306,-0.0309 -0.23217,-0.0309 l -1.90374,0 0,0.63458"
       inkscape:connector-curvature="0" />
    <path
       id="path3100"
       style="font-size:10.56600189px;font-style:normal;font-variant:normal;font-weight:normal;font-stretch:normal;text-align:start;line-height:125%;letter-spacing:0px;word-spacing:0px;writing-mode:lr-tb;text-anchor:start;fill:#ff0000;fill-opacity:1;stroke:none;font-family:'It wasn\'t me';-inkscape-font-specification:'It wasn\'t me'"
       d="m 593.53278,563.36166 1.26916,0 c 0.0275,0 0.0585,0.002 0.0929,0.005 0.0378,0.003 0.0722,0.0172 0.10319,0.0413 0.031,0.0206 0.0585,0.0516 0.0825,0.0929 0.0275,0.0413 0.0413,0.10146 0.0413,0.18057 l 0,3.37926 0.94929,0 0,-3.69913 c -10e-6,-0.13414 -0.0172,-0.24076 -0.0516,-0.31987 -0.0344,-0.0825 -0.0825,-0.14617 -0.14445,-0.19089 -0.0585,-0.0447 -0.12727,-0.0757 -0.20637,-0.0929 -0.0757,-0.0206 -0.15306,-0.0309 -0.23216,-0.0309 l -1.90374,0 0,0.63458 m 1.26916,3.06455 -1.26916,0 c -0.0275,0 -0.0585,-0.002 -0.0929,-0.005 -0.0344,-0.003 -0.0688,-0.0155 -0.10318,-0.0361 -0.031,-0.0206 -0.0585,-0.0516 -0.0825,-0.0929 -0.0241,-0.0447 -0.0361,-0.1049 -0.0361,-0.18057 l 0,-3.38442 -0.94929,0 0,3.69913 c 0,0.13414 0.0172,0.24248 0.0516,0.32503 0.0344,0.0791 0.0808,0.14274 0.1393,0.19089 0.0619,0.0447 0.1307,0.0757 0.20637,0.0929 0.0791,0.0172 0.15821,0.0258 0.23732,0.0258 l 1.89858,0 0,-0.63458"
       inkscape:connector-curvature="0" />
    <path
       id="path3102"
       style="font-size:10.56600189px;font-style:normal;font-variant:normal;font-weight:normal;font-stretch:normal;text-align:start;line-height:125%;letter-spacing:0px;word-spacing:0px;writing-mode:lr-tb;text-anchor:start;fill:#ff0000;fill-opacity:1;stroke:none;font-family:'It wasn\'t me';-inkscape-font-specification:'It wasn\'t me'"
       d="m 600.19844,562.72708 -0.94929,0 0,4.33371 0.94929,0 0,-4.33371 m -1.26916,3.69913 -1.26916,0 c -0.0275,0 -0.0585,-0.002 -0.0929,-0.005 -0.0344,-0.003 -0.0688,-0.0155 -0.10318,-0.0361 -0.031,-0.0206 -0.0585,-0.0516 -0.0825,-0.0929 -0.0241,-0.0447 -0.0361,-0.1049 -0.0361,-0.18057 l 0,-3.38442 -0.94928,0 0,3.69913 c 0,0.13414 0.0172,0.24248 0.0516,0.32503 0.0344,0.0791 0.0808,0.14274 0.1393,0.19089 0.0619,0.0447 0.13069,0.0757 0.20636,0.0929 0.0791,0.0172 0.15822,0.0258 0.23732,0.0258 l 1.89858,0 0,-0.63458"
       inkscape:connector-curvature="0" />
    <path
       id="path3104"
       style="font-size:10.56600189px;font-style:normal;font-variant:normal;font-weight:normal;font-stretch:normal;text-align:start;line-height:125%;letter-spacing:0px;word-spacing:0px;writing-mode:lr-tb;text-anchor:start;fill:#ff0000;fill-opacity:1;stroke:none;font-family:'It wasn\'t me';-inkscape-font-specification:'It wasn\'t me'"
       d="m 601.47276,566.1115 c 0,0.0757 0.012,0.13586 0.0361,0.18057 0.0241,0.0413 0.0516,0.0722 0.0825,0.0929 0.0344,0.0206 0.0688,0.0327 0.10318,0.0361 0.0344,0.003 0.0653,0.005 0.0929,0.005 l 1.58902,0 0,-2.74468 c 0,-0.0791 -0.0138,-0.1393 -0.0413,-0.18057 -0.0241,-0.0413 -0.0516,-0.0722 -0.0826,-0.0929 -0.0309,-0.0241 -0.0653,-0.0378 -0.10318,-0.0413 -0.0344,-0.003 -0.0653,-0.005 -0.0929,-0.005 l -1.26916,0 0,-0.63458 1.90373,0 c 0.0791,0 0.1565,0.0103 0.23217,0.0309 0.0791,0.0172 0.14789,0.0482 0.20636,0.0929 0.0619,0.0447 0.11006,0.10835 0.14446,0.19089 0.0344,0.0791 0.0516,0.18573 0.0516,0.31987 l 0,4.22537 c 0,0.13414 -0.0172,0.24076 -0.0516,0.31987 -0.0344,0.0825 -0.0825,0.14617 -0.14446,0.19089 -0.0585,0.0481 -0.12726,0.0808 -0.20636,0.098 -0.0757,0.0172 -0.15306,0.0258 -0.23217,0.0258 l -1.90373,0 0,-0.63458 1.26916,0 c 0.0275,0 0.0585,-0.002 0.0929,-0.005 0.0378,-0.003 0.0722,-0.0155 0.10318,-0.0361 0.031,-0.0206 0.0585,-0.0533 0.0826,-0.098 0.0275,-0.0413 0.0413,-0.0997 0.0413,-0.17541 l 0,-0.21153 -2.21844,0 c -0.0791,0 -0.15822,-0.009 -0.23733,-0.0258 -0.0757,-0.0172 -0.14445,-0.0482 -0.20636,-0.0929 -0.0585,-0.0481 -0.10491,-0.11178 -0.1393,-0.19089 -0.0344,-0.0826 -0.0516,-0.19089 -0.0516,-0.32503 l 0,-3.69913 0.94929,0 0,3.38442"
       inkscape:connector-curvature="0" />
    <path
       id="path3106"
       style="font-size:10.56600189px;font-style:normal;font-variant:normal;font-weight:normal;font-stretch:normal;text-align:start;line-height:125%;letter-spacing:0px;word-spacing:0px;writing-mode:lr-tb;text-anchor:start;fill:#ff0000;fill-opacity:1;stroke:none;font-family:'It wasn\'t me';-inkscape-font-specification:'It wasn\'t me'"
       d="m 607.50384,563.68153 0,1.02152 c 0,0.0791 -0.0138,0.1393 -0.0413,0.18057 -0.0241,0.0413 -0.0516,0.074 -0.0826,0.098 -0.031,0.0206 -0.0653,0.0327 -0.10318,0.0361 -0.0344,0.003 -0.0654,0.005 -0.0929,0.005 l -1.58387,0 0,-2.29583 -0.94929,0 0,3.69913 c 0,0.13414 0.0172,0.24248 0.0516,0.32503 0.0344,0.0791 0.0808,0.14274 0.13929,0.19089 0.0619,0.0447 0.1307,0.0757 0.20637,0.0929 0.0791,0.0172 0.15821,0.0258 0.23732,0.0258 l 3.16774,0 0,-0.63458 -2.53832,0 c -0.0275,0 -0.0585,-0.002 -0.0929,-0.005 -0.0344,-0.003 -0.0688,-0.0155 -0.10319,-0.0361 -0.0309,-0.0206 -0.0585,-0.0516 -0.0825,-0.0929 -0.0241,-0.0447 -0.0361,-0.1049 -0.0361,-0.18057 l 0,-0.45401 2.21845,0 c 0.0791,1e-5 0.15649,-0.009 0.23216,-0.0258 0.0791,-0.0206 0.1479,-0.0533 0.20637,-0.098 0.0619,-0.0447 0.11006,-0.10662 0.14446,-0.18573 0.0344,-0.0825 0.0516,-0.19088 0.0516,-0.32503 l 0,-1.66125 c 0,-0.13414 -0.0172,-0.24076 -0.0516,-0.31987 -0.0344,-0.0825 -0.0825,-0.14617 -0.14446,-0.19089 -0.0585,-0.0447 -0.12726,-0.0757 -0.20637,-0.0929 -0.0757,-0.0206 -0.15306,-0.0309 -0.23216,-0.0309 l -1.90374,0 0,0.63458 1.26916,0 c 0.0275,0 0.0585,0.002 0.0929,0.005 0.0378,0.003 0.0722,0.0172 0.10318,0.0413 0.031,0.0206 0.0585,0.0516 0.0826,0.0929 0.0275,0.0413 0.0413,0.10146 0.0413,0.18057"
       inkscape:connector-curvature="0" />
  </g>
</svg>
